<svg width="120" height="120" viewBox="0 0 120 120" fill="none" xmlns="http://www.w3.org/2000/svg">
<circle cx="76.4999" cy="43.5" r="21.5" fill="#00AEEF"/>
<path fill-rule="evenodd" clip-rule="evenodd" d="M74.3062 38.573L77.9248 37.3972L82.334 50.9672L78.7153 52.1429L78.4214 51.2382L74.3062 38.573ZM72.4968 39.1608L71.909 37.3515L79.1463 35L84.7312 52.1886L77.4939 54.5401L76.612 51.8261L64.6687 55.7067C64.7362 56.087 64.7714 56.4784 64.7714 56.878C64.7714 60.0905 62.4964 62.7716 59.4696 63.3982L59.5258 63.5366L71.3598 92.6664L69.5973 93.3824L64.2958 80.3327V80.6585H59.0642V93.4999H57.1617V80.6585H52.0741L47.1085 93.3705L45.3364 92.6783L56.7726 63.4016C54.7201 62.9822 53.0114 61.6184 52.1202 59.784L43.1395 62.702L42.5516 60.8927L35.3146 63.2441L35.9026 65.0535L29.7332 67.0581L25.618 54.3928L31.7874 52.3883L32.3752 54.1975L39.6122 51.846L39.0243 50.0367L72.4968 39.1608ZM73.0847 40.9701L41.4215 51.2581L44.3609 60.3048L44.361 60.3048L51.5436 57.971C51.4849 57.6154 51.4543 57.2503 51.4543 56.878C51.4543 53.2006 54.4354 50.2195 58.1129 50.2195C60.7201 50.2195 62.9774 51.718 64.0703 53.9008L76.0242 50.0168L73.0847 40.9701ZM40.2 53.6554L32.9631 56.0068L34.7268 61.4348L41.9637 59.0833L40.2 53.6554ZM63.6553 78.7561H59.0642V67.4548L63.6553 78.7561ZM57.1617 78.7561V67.6341L52.8172 78.7561H57.1617ZM30.5656 54.7856L28.0153 55.6142L30.9547 64.6609L33.5054 63.8321L33.5053 63.832L33.505 63.8321L30.5656 54.7856ZM58.1129 61.6341C60.7396 61.6341 62.8689 59.5047 62.8689 56.878C62.8689 54.2513 60.7396 52.1219 58.1129 52.1219C55.4861 52.1219 53.3568 54.2513 53.3568 56.878C53.3568 59.5047 55.4861 61.6341 58.1129 61.6341ZM58.1129 58.7805C59.1636 58.7805 60.0153 57.9287 60.0153 56.878C60.0153 55.8273 59.1636 54.9756 58.1129 54.9756C57.0622 54.9756 56.2104 55.8273 56.2104 56.878C56.2104 57.9287 57.0622 58.7805 58.1129 58.7805Z" fill="#231F20"/>
</svg>
