<svg width="230" height="30" viewBox="0 0 230 30" fill="none" xmlns="http://www.w3.org/2000/svg">
<path d="M0 29.3182V0.506494H5.49295V12.9935L12.1392 0.506494H18.3359L11.025 12.9935L18.59 29.3182H12.452L7.66276 17.8247L5.49295 20.6688V29.3182H0Z" fill="#00AEEF"/>
<path d="M20.0655 29.3182L27.3959 0.506494H34.7655L41.1772 29.3182H35.2346L33.8858 21.8182H27.6696L25.9494 29.3182H20.0655ZM28.3538 17.5519H33.2016L30.9927 4.14935L28.3538 17.5519Z" fill="#00AEEF"/>
<path d="M43.845 29.3182V0.506494H54.225C55.7497 0.506494 57.092 0.88961 58.2518 1.65584C59.4247 2.40909 60.3109 3.42208 60.9103 4.69481C61.5228 5.95455 61.8291 7.36364 61.8291 8.92208C61.8291 10.5065 61.5163 11.9545 60.8908 13.2662C60.2783 14.5779 59.3791 15.6299 58.1932 16.4221C57.0203 17.2013 55.6715 17.5909 54.1468 17.5909H49.338V29.3182H43.845ZM49.338 13.3247H52.0942C53.4626 13.3247 54.4921 12.9545 55.1828 12.2143C55.8735 11.474 56.2188 10.4091 56.2188 9.01948C56.2188 7.64286 55.8735 6.59091 55.1828 5.86364C54.4921 5.13636 53.4626 4.77273 52.0942 4.77273H49.338V13.3247Z" fill="#00AEEF"/>
<path d="M63.7502 4.90909V0.506494H82.8485V4.90909H76.0458V29.3182H70.5529V4.90909H63.7502Z" fill="#00AEEF"/>
<path d="M85.9464 29.3182V0.506494H101.409V4.90909H91.4394V11.6104H100.529V15.9935H91.4394V24.9351H101.409V29.3182H85.9464Z" fill="#00AEEF"/>
<path d="M104.804 29.474V25.4416C105.234 25.5844 105.82 25.6558 106.563 25.6558C107.189 25.6558 107.651 25.4481 107.951 25.0325C108.251 24.6039 108.485 23.5649 108.655 21.9156C108.837 20.2662 108.928 17.7338 108.928 14.3182V0.506494H125.661V29.3182H120.168V4.90909H114.324V15.9545C114.324 20.8636 113.854 24.4091 112.916 26.5909C111.991 28.7597 110.395 29.8442 108.127 29.8442C106.85 29.8442 105.742 29.7208 104.804 29.474Z" fill="#00AEEF"/>
<path d="M129.283 29.3182V0.506494H144.746V4.90909H134.776V11.6104H143.866V15.9935H134.776V24.9351H144.746V29.3182H129.283Z" fill="#00AEEF"/>
<path d="M148.371 20.3766V9.8961C148.371 6.54545 149.121 4.05844 150.619 2.43507C152.131 0.811688 154.386 0 157.383 0C160.159 0 162.289 0.74026 163.775 2.22078C165.274 3.7013 166.023 5.77922 166.023 8.45455V9.8961H160.55V9.25325C160.55 7.46104 160.302 6.2013 159.807 5.47403C159.312 4.74675 158.478 4.38312 157.305 4.38312C156.119 4.38312 155.265 4.75325 154.744 5.49351C154.236 6.22078 153.982 7.47403 153.982 9.25325V20.6299C153.982 22.474 154.229 23.7662 154.724 24.5065C155.233 25.2468 156.08 25.6169 157.266 25.6169C158.399 25.6169 159.227 25.2403 159.748 24.487C160.282 23.7208 160.55 22.4351 160.55 20.6299V19.0714H166.023V20.2987C166.023 26.7662 163.117 30 157.305 30C155.91 30 154.679 29.8247 153.61 29.474C152.555 29.1234 151.694 28.6623 151.03 28.0909C150.378 27.5195 149.85 26.8117 149.446 25.9675C149.042 25.1104 148.762 24.2403 148.606 23.3571C148.45 22.461 148.371 21.4675 148.371 20.3766Z" fill="#231F20"/>
<path d="M169.234 29.3182V0.506494H174.727V12.9935L181.374 0.506494H187.57L180.259 12.9935L187.824 29.3182H181.686L176.897 17.8247L174.727 20.6688V29.3182H169.234Z" fill="#231F20"/>
<path d="M188.901 20.2987V9.85714C188.901 8.09091 189.129 6.56494 189.585 5.27922C190.041 3.98052 190.693 2.95455 191.54 2.2013C192.4 1.43506 193.384 0.876623 194.492 0.525974C195.612 0.175325 196.883 0 198.304 0C199.75 0 201.021 0.175325 202.115 0.525974C203.223 0.863636 204.194 1.40909 205.028 2.16234C205.875 2.91558 206.514 3.94156 206.944 5.24026C207.387 6.52597 207.608 8.06493 207.608 9.85714V20.2987C207.608 22.0909 207.387 23.6299 206.944 24.9156C206.514 26.1883 205.875 27.1883 205.028 27.9156C204.181 28.6429 203.21 29.1688 202.115 29.4935C201.021 29.8312 199.75 30 198.304 30C192.035 30 188.901 26.7662 188.901 20.2987ZM194.511 20.9805C194.511 24.0714 195.775 25.6169 198.304 25.6169C199.489 25.6169 200.402 25.2208 201.04 24.4286C201.679 23.6364 201.998 22.487 201.998 20.9805V9.29221C201.998 7.74675 201.672 6.54545 201.021 5.68831C200.382 4.81818 199.476 4.38312 198.304 4.38312C195.775 4.38312 194.511 5.99351 194.511 9.21429V20.9805Z" fill="#231F20"/>
<path d="M211.781 29.3182V0.506494H230V29.3182H224.527V4.90909H217.274V29.3182H211.781Z" fill="#231F20"/>
</svg>
