<svg width="231" height="31" viewBox="0 0 231 31" fill="none" xmlns="http://www.w3.org/2000/svg">
<path d="M0.992188 29.9237V1.11196H6.48513V13.599L13.1314 1.11196H19.3281L12.0172 13.599L19.5822 29.9237H13.4442L8.65495 18.4301L6.48513 21.2743V29.9237H0.992188Z" fill="#00AEEF"/>
<path d="M21.0577 29.9237L28.3881 1.11196H35.7577L42.1693 29.9237H36.2268L34.878 22.4237H28.6618L26.9416 29.9237H21.0577ZM29.346 18.1574H34.1938L31.9849 4.75482L29.346 18.1574Z" fill="#00AEEF"/>
<path d="M44.8372 29.9237V1.11196H55.2171C56.7419 1.11196 58.0842 1.49508 59.244 2.26131C60.4169 3.01456 61.303 4.02755 61.9025 5.30027C62.515 6.56001 62.8213 7.96911 62.8213 9.52755C62.8213 11.112 62.5085 12.56 61.883 13.8717C61.2705 15.1834 60.3713 16.2353 59.1854 17.0275C58.0125 17.8068 56.6637 18.1964 55.139 18.1964H50.3302V29.9237H44.8372ZM50.3302 13.9301H53.0864C54.4548 13.9301 55.4843 13.56 56.175 12.8198C56.8657 12.0795 57.211 11.0146 57.211 9.62495C57.211 8.24833 56.8657 7.19638 56.175 6.46911C55.4843 5.74183 54.4548 5.3782 53.0864 5.3782H50.3302V13.9301Z" fill="#00AEEF"/>
<path d="M64.7424 5.51456V1.11196H83.8407V5.51456H77.038V29.9237H71.5451V5.51456H64.7424Z" fill="#00AEEF"/>
<path d="M86.9386 29.9237V1.11196H102.401V5.51456H92.4316V12.2159H101.521V16.599H92.4316V25.5405H102.401V29.9237H86.9386Z" fill="#00AEEF"/>
<path d="M105.796 30.0795V26.047C106.226 26.1899 106.813 26.2613 107.555 26.2613C108.181 26.2613 108.644 26.0535 108.943 25.6379C109.243 25.2094 109.478 24.1704 109.647 22.5211C109.829 20.8717 109.921 18.3392 109.921 14.9237V1.11196H126.654V29.9237H121.161V5.51456H115.316V16.56C115.316 21.4691 114.847 25.0146 113.908 27.1964C112.983 29.3652 111.387 30.4496 109.119 30.4496C107.842 30.4496 106.734 30.3262 105.796 30.0795Z" fill="#00AEEF"/>
<path d="M130.275 29.9237V1.11196H145.738V5.51456H135.768V12.2159H144.858V16.599H135.768V25.5405H145.738V29.9237H130.275Z" fill="#00AEEF"/>
<path d="M149.364 20.9821V10.5016C149.364 7.15092 150.113 4.66391 151.612 3.04053C153.123 1.41716 155.378 0.605469 158.375 0.605469C161.151 0.605469 163.282 1.34573 164.767 2.82625C166.266 4.30677 167.015 6.38469 167.015 9.06001V10.5016H161.542V9.85872C161.542 8.06651 161.294 6.80677 160.799 6.07949C160.304 5.35222 159.47 4.98859 158.297 4.98859C157.111 4.98859 156.257 5.35872 155.736 6.09898C155.228 6.82625 154.974 8.07949 154.974 9.85872V21.2353C154.974 23.0795 155.221 24.3717 155.717 25.112C156.225 25.8522 157.072 26.2224 158.258 26.2224C159.392 26.2224 160.219 25.8457 160.74 25.0925C161.275 24.3262 161.542 23.0405 161.542 21.2353V19.6769H167.015V20.9042C167.015 27.3717 164.109 30.6055 158.297 30.6055C156.902 30.6055 155.671 30.4301 154.602 30.0795C153.547 29.7288 152.687 29.2678 152.022 28.6964C151.37 28.1249 150.843 27.4172 150.439 26.573C150.035 25.7159 149.754 24.8457 149.598 23.9626C149.442 23.0665 149.364 22.073 149.364 20.9821Z" fill="#231F20"/>
<path d="M170.227 29.9237V1.11196H175.719V13.599L182.366 1.11196H188.562L181.252 13.599L188.817 29.9237H182.679L177.889 18.4301L175.719 21.2743V29.9237H170.227Z" fill="#231F20"/>
<path d="M189.893 20.9042V10.4626C189.893 8.69638 190.121 7.1704 190.577 5.88469C191.034 4.58599 191.685 3.56001 192.532 2.80677C193.392 2.04053 194.376 1.48209 195.484 1.13144C196.605 0.780793 197.875 0.605469 199.296 0.605469C200.742 0.605469 202.013 0.780793 203.108 1.13144C204.215 1.46911 205.186 2.01456 206.02 2.76781C206.867 3.52105 207.506 4.54703 207.936 5.84573C208.379 7.13144 208.601 8.6704 208.601 10.4626V20.9042C208.601 22.6964 208.379 24.2353 207.936 25.5211C207.506 26.7938 206.867 27.7938 206.02 28.5211C205.173 29.2483 204.202 29.7743 203.108 30.099C202.013 30.4366 200.742 30.6055 199.296 30.6055C193.027 30.6055 189.893 27.3717 189.893 20.9042ZM195.503 21.586C195.503 24.6769 196.768 26.2224 199.296 26.2224C200.482 26.2224 201.394 25.8262 202.032 25.034C202.671 24.2418 202.99 23.0925 202.99 21.586V9.89768C202.99 8.35222 202.665 7.15092 202.013 6.29378C201.374 5.42365 200.469 4.98859 199.296 4.98859C196.768 4.98859 195.503 6.59898 195.503 9.81975V21.586Z" fill="#231F20"/>
<path d="M212.774 29.9237V1.11196H230.992V29.9237H225.519V5.51456H218.267V29.9237H212.774Z" fill="#231F20"/>
</svg>
