<svg width="172" height="31" viewBox="0 0 172 31" fill="none" xmlns="http://www.w3.org/2000/svg">
<path d="M0.992188 29.9237V1.11196H9.72923L13.5626 19.8327L17.3766 1.11196H26.1136V29.9237H20.9959V3.83924H20.957L15.5085 29.9237H11.5973L6.14879 3.8782H6.10987V29.9237H0.992188Z" fill="#00AEEF"/>
<path d="M30.5012 29.9237V1.11196H45.8932V5.51456H35.9691V12.2159H45.0175V16.599H35.9691V25.5405H45.8932V29.9237H30.5012Z" fill="#00AEEF"/>
<path d="M48.4322 5.51456V1.11196H67.4435V5.51456H60.6718V29.9237H55.2039V5.51456H48.4322Z" fill="#00AEEF"/>
<path d="M66.262 29.9237L73.559 1.11196H80.895L87.2775 29.9237H81.362L80.0194 22.4237H73.8315L72.1191 29.9237H66.262ZM74.5125 18.1574H79.3383L77.1395 4.75482L74.5125 18.1574Z" fill="#00AEEF"/>
<path d="M89.7387 20.9821V10.5016C89.7387 7.15092 90.4846 4.66391 91.9765 3.04053C93.4813 1.41716 95.7256 0.605469 98.7093 0.605469C101.472 0.605469 103.593 1.34573 105.072 2.82625C106.564 4.30677 107.31 6.38469 107.31 9.06001V10.5016H101.862V9.85872C101.862 8.06651 101.615 6.80677 101.122 6.07949C100.629 5.35222 99.7989 4.98859 98.6314 4.98859C97.4509 4.98859 96.6012 5.35872 96.0823 6.09898C95.5764 6.82625 95.3234 8.07949 95.3234 9.85872V21.2353C95.3234 23.0795 95.5699 24.3717 96.0628 25.112C96.5688 25.8522 97.412 26.2224 98.5925 26.2224C99.7211 26.2224 100.545 25.8457 101.064 25.0925C101.596 24.3262 101.862 23.0405 101.862 21.2353V19.6769H107.31V20.9042C107.31 27.3717 104.417 30.6055 98.6314 30.6055C97.2433 30.6055 96.0174 30.4301 94.9537 30.0795C93.9029 29.7288 93.0467 29.2678 92.3851 28.6964C91.7365 28.1249 91.2111 27.4172 90.8089 26.573C90.4068 25.7159 90.1279 24.8457 89.9722 23.9626C89.8165 23.0665 89.7387 22.073 89.7387 20.9821Z" fill="#231F20"/>
<path d="M111.503 29.9237V1.11196H116.971V13.599L123.587 1.11196H129.756L122.478 13.599L130.008 29.9237H123.898L119.131 18.4301L116.971 21.2743V29.9237H111.503Z" fill="#231F20"/>
<path d="M131.08 20.9042V10.4626C131.08 8.69638 131.307 7.1704 131.761 5.88469C132.215 4.58599 132.864 3.56001 133.707 2.80677C134.563 2.04053 135.543 1.48209 136.646 1.13144C137.761 0.780793 139.026 0.605469 140.44 0.605469C141.88 0.605469 143.145 0.780793 144.234 1.13144C145.337 1.46911 146.304 2.01456 147.134 2.76781C147.977 3.52105 148.613 4.54703 149.041 5.84573C149.482 7.13144 149.702 8.6704 149.702 10.4626V20.9042C149.702 22.6964 149.482 24.2353 149.041 25.5211C148.613 26.7938 147.977 27.7938 147.134 28.5211C146.291 29.2483 145.324 29.7743 144.234 30.099C143.145 30.4366 141.88 30.6055 140.44 30.6055C134.2 30.6055 131.08 27.3717 131.08 20.9042ZM136.665 21.586C136.665 24.6769 137.923 26.2224 140.44 26.2224C141.62 26.2224 142.529 25.8262 143.164 25.034C143.8 24.2418 144.118 23.0925 144.118 21.586V9.89768C144.118 8.35222 143.793 7.15092 143.145 6.29378C142.509 5.42365 141.608 4.98859 140.44 4.98859C137.923 4.98859 136.665 6.59898 136.665 9.81975V21.586Z" fill="#231F20"/>
<path d="M153.857 29.9237V1.11196H171.992V29.9237H166.544V5.51456H159.324V29.9237H153.857Z" fill="#231F20"/>
</svg>
