<svg width="120" height="120" viewBox="0 0 120 120" fill="none" xmlns="http://www.w3.org/2000/svg">
<circle cx="76.5" cy="43.5" r="21.5" fill="#00AEEF"/>
<path fill-rule="evenodd" clip-rule="evenodd" d="M53.375 35.875H47.75V38.6875H53.375V35.875ZM55.25 38.6875V34H45.875V38.6875H44V67.75H46.8125V72.4375H54.3125V67.75H57.125V62.125V60.25V56.479C58.9284 56.3165 60.4641 55.2254 61.2503 53.6875H69.3125V86.5H55.25V80.875H63.6875V79H55.25H45.875H37.4375V80.875H45.875V86.5H29V94H81.5V86.5H79.625V46.1875H69.3125V48.0625H60.6339C59.7815 47.0303 58.5351 46.3356 57.125 46.2085V38.6875H55.25ZM55.25 46.3816V40.5625H45.875V60.25H55.25V56.3059C53.0858 55.6938 51.5 53.704 51.5 51.3438C51.5 48.9835 53.0858 46.9937 55.25 46.3816ZM55.25 62.125H45.875V65.875H46.8125H54.3125H55.25V62.125ZM52.4375 67.75H48.6875V70.5625H52.4375V67.75ZM56.6562 54.625C58.4684 54.625 59.9375 53.1559 59.9375 51.3438C59.9375 49.5316 58.4684 48.0625 56.6562 48.0625C54.8441 48.0625 53.375 49.5316 53.375 51.3438C53.375 53.1559 54.8441 54.625 56.6562 54.625ZM45.875 88.375H55.25H69.3125H79.625V92.125H30.875V88.375H45.875ZM53.375 80.875V86.5H47.75V80.875H53.375ZM77.75 86.5H71.1875V48.0625H77.75V86.5ZM69.3125 49.9375H61.6184C61.7448 50.3845 61.8125 50.8562 61.8125 51.3438C61.8125 51.5018 61.8054 51.6581 61.7915 51.8125H69.3125V49.9375ZM56.6562 52.75C57.4329 52.75 58.0625 52.1204 58.0625 51.3438C58.0625 50.5671 57.4329 49.9375 56.6562 49.9375C55.8796 49.9375 55.25 50.5671 55.25 51.3438C55.25 52.1204 55.8796 52.75 56.6562 52.75Z" fill="#231F20"/>
</svg>
