<svg width="120" height="120" viewBox="0 0 120 120" fill="none" xmlns="http://www.w3.org/2000/svg">
<circle cx="76.5" cy="43.5" r="21.5" fill="#00AEEF"/>
<path fill-rule="evenodd" clip-rule="evenodd" d="M74.3063 38.573L77.925 37.3972L82.3341 50.9672L78.7155 52.1429L78.4215 51.2382L74.3063 38.573ZM72.497 39.1608L71.9091 37.3515L79.1464 35L84.7313 52.1886L77.494 54.5401L76.6122 51.8261L64.6688 55.7067C64.7363 56.087 64.7715 56.4784 64.7715 56.878C64.7715 60.0905 62.4965 62.7716 59.4698 63.3982L59.526 63.5366L71.3599 92.6664L69.5974 93.3824L64.296 80.3327V80.6585H59.0643V93.4999H57.1619V80.6585H52.0742L47.1086 93.3705L45.3366 92.6783L56.7728 63.4016C54.7202 62.9822 53.0115 61.6184 52.1203 59.784L43.1396 62.702L42.5517 60.8927L35.3148 63.2441L35.9027 65.0535L29.7334 67.0581L25.6182 54.3928L31.7875 52.3883L32.3753 54.1975L39.6123 51.846L39.0244 50.0367L72.497 39.1608ZM73.0849 40.9701L41.4216 51.2581L44.361 60.3048L44.3611 60.3048L51.5437 57.971C51.485 57.6154 51.4544 57.2503 51.4544 56.878C51.4544 53.2006 54.4356 50.2195 58.113 50.2195C60.7203 50.2195 62.9775 51.718 64.0705 53.9008L76.0243 50.0168L73.0849 40.9701ZM40.2002 53.6554L32.9632 56.0068L34.7269 61.4348L41.9638 59.0833L40.2002 53.6554ZM63.6555 78.7561H59.0643V67.4548L63.6555 78.7561ZM57.1619 78.7561V67.6341L52.8173 78.7561H57.1619ZM30.5657 54.7856L28.0154 55.6142L30.9548 64.6609L33.5055 63.8321L33.5054 63.832L33.5051 63.8321L30.5657 54.7856ZM58.113 61.6341C60.7397 61.6341 62.8691 59.5047 62.8691 56.878C62.8691 54.2513 60.7397 52.1219 58.113 52.1219C55.4863 52.1219 53.3569 54.2513 53.3569 56.878C53.3569 59.5047 55.4863 61.6341 58.113 61.6341ZM58.113 58.7805C59.1637 58.7805 60.0154 57.9287 60.0154 56.878C60.0154 55.8273 59.1637 54.9756 58.113 54.9756C57.0623 54.9756 56.2105 55.8273 56.2105 56.878C56.2105 57.9287 57.0623 58.7805 58.113 58.7805Z" fill="#231F20"/>
</svg>
